<?xml version="1.0" encoding="UTF-8" standalone="no"?>
<!DOCTYPE svg PUBLIC "-//W3C//DTD SVG 1.1//EN" "http://www.w3.org/Graphics/SVG/1.1/DTD/svg11.dtd">
<svg width="100%" height="100%" viewBox="0 0 32 32" version="1.1" xmlns="http://www.w3.org/2000/svg" xmlns:xlink="http://www.w3.org/1999/xlink" xml:space="preserve" xmlns:serif="http://www.serif.com/" style="fill-rule:evenodd;clip-rule:evenodd;stroke-linejoin:round;stroke-miterlimit:2;">
    <g transform="matrix(1.01157,0,0,1.01157,-1.89155,-0.0925645)">
        <path d="M14.431,11.337C14.519,11.184 14.682,11.09 14.859,11.09C15.293,11.09 16.135,11.09 16.779,11.09C16.956,11.09 17.119,11.184 17.207,11.337C17.295,11.49 17.295,11.678 17.207,11.831C15.872,14.143 11.813,21.173 10.769,22.982C10.703,23.096 10.686,23.231 10.72,23.357C10.754,23.484 10.836,23.592 10.95,23.657C11.779,24.136 13.595,25.184 14.424,25.663C14.537,25.729 14.672,25.746 14.799,25.712C14.926,25.679 15.034,25.596 15.099,25.482C16.48,23.091 23.224,11.409 24.605,9.018C24.67,8.904 24.688,8.769 24.654,8.643C24.62,8.516 24.537,8.408 24.424,8.343C23.463,7.788 21.175,6.467 20.637,6.156C20.561,6.113 20.476,6.09 20.389,6.09L4.859,6.09C4.682,6.09 4.519,6.184 4.431,6.337C4.012,7.062 2.776,9.203 2.115,10.348C2.027,10.501 2.027,10.69 2.115,10.843C2.203,10.996 2.366,11.09 2.543,11.09C3.911,11.09 6.576,11.09 7.944,11.09C8.121,11.09 8.284,11.184 8.372,11.337C8.46,11.49 8.46,11.678 8.372,11.831C7.037,14.143 2.978,21.173 1.934,22.982C1.868,23.096 1.851,23.231 1.885,23.357C1.919,23.484 2.001,23.592 2.115,23.657C2.944,24.136 4.76,25.184 5.589,25.663C5.825,25.8 6.128,25.719 6.264,25.482C7.548,23.258 13.437,13.059 14.431,11.337Z" style="fill:rgb(255,136,0);"/>
    </g>
    <g transform="matrix(1.01157,0,0,1.01157,-0.185129,-0.0925645)">
        <path d="M28.098,6.337C27.984,6.271 27.849,6.254 27.723,6.288C27.596,6.321 27.488,6.404 27.423,6.518C26.042,8.909 19.298,20.591 17.917,22.982C17.851,23.096 17.834,23.231 17.868,23.357C17.902,23.484 17.984,23.592 18.098,23.657C18.927,24.136 20.743,25.184 21.572,25.663C21.685,25.729 21.82,25.746 21.947,25.712C22.074,25.679 22.182,25.596 22.247,25.482C23.628,23.091 30.372,11.409 31.753,9.018C31.818,8.904 31.836,8.769 31.802,8.643C31.768,8.516 31.685,8.408 31.572,8.343C30.743,7.864 28.927,6.816 28.098,6.337Z" style="fill:rgb(255,136,0);"/>
    </g>
</svg>
